<?xml version="1.0" encoding="UTF-8"?>
<svg width="18px" height="12px" viewBox="0 0 18 12" version="1.1" xmlns="http://www.w3.org/2000/svg" xmlns:xlink="http://www.w3.org/1999/xlink">
    <g id="Page-1" stroke="none" stroke-width="1" fill="none" fill-rule="evenodd">
        <g id="halloween_screen2" transform="translate(-20.000000, -59.000000)" fill="#FFFFFF" fill-rule="nonzero">
            <path d="M37.1078065,64.3974677 L31.9465161,59.2361774 C31.6316129,58.9212742 31.1209032,58.9212742 30.806,59.2361774 C30.4910323,59.5511452 30.4910323,60.0617258 30.806,60.3766935 L34.5905806,64.1612742 L20.8064516,64.1612742 C20.3610968,64.1612742 20,64.522371 20,64.9677258 C20,65.4130161 20.3610968,65.7741774 20.8064516,65.7741774 L34.5905806,65.7741774 L30.806129,69.5587581 C30.4911613,69.8737258 30.4911613,70.3843065 30.806129,70.6992742 C30.9635484,70.856629 31.17,70.9354677 31.3763871,70.9354677 C31.5827742,70.9354677 31.7891613,70.856629 31.9466452,70.6992742 L37.1078065,65.5379839 C37.4227742,65.2230161 37.4227742,64.7124355 37.1078065,64.3974677 Z" id="Path" transform="translate(28.672016, 64.967734) scale(-1, 1) translate(-28.672016, -64.967734) "></path>
        </g>
    </g>
</svg>