<?xml version="1.0" encoding="UTF-8"?>
<svg width="12px" height="12px" viewBox="0 0 12 12" version="1.1" xmlns="http://www.w3.org/2000/svg" xmlns:xlink="http://www.w3.org/1999/xlink">
    <!-- Generator: Sketch 60.1 (88133) - https://sketch.com -->
    <title>148932</title>
    <desc>Created with Sketch.</desc>
    <g id="Page-1" stroke="none" stroke-width="1" fill="none" fill-rule="evenodd">
        <g id="148932" transform="translate(1.000000, 1.000000)">
            <circle id="Oval" fill="#494E53" fill-rule="nonzero" cx="5" cy="5" r="5"></circle>
            <path d="M5,0.689655172 C7.37672414,0.689655172 9.31034483,2.62327586 9.31034483,5 C9.31034483,7.37672414 7.37672414,9.31034483 5,9.31034483 C2.62327586,9.31034483 0.689655172,7.37672414 0.689655172,5 C0.689655172,2.62327586 2.62327586,0.689655172 5,0.689655172 L5,0.689655172 Z M5,0 C2.23862069,0 0,2.23862069 0,5 C0,7.76137931 2.23862069,10 5,10 C7.76137931,10 10,7.76137931 10,5 C10,2.23862069 7.76137931,0 5,0 L5,0 Z" id="Shape" stroke="#FFFFFF" stroke-width="0.05" fill="#FFFFFF"></path>
            <g id="Group" transform="translate(1.034483, 0.862069)" fill="#FFFFFF">
                <path d="M3.96551724,0.151551724 C3.87034483,0.151551724 3.79310345,0.22862069 3.79310345,0.323965517 L3.79310345,0.49637931 C3.79310345,0.591724138 3.87034483,0.668793103 3.96551724,0.668793103 C4.06068966,0.668793103 4.13793103,0.591724138 4.13793103,0.49637931 L4.13793103,0.323965517 C4.13793103,0.22862069 4.06068966,0.151551724 3.96551724,0.151551724 Z" id="Path"></path>
                <path d="M3.96551724,7.56534483 C3.87034483,7.56534483 3.79310345,7.64241379 3.79310345,7.73775862 L3.79310345,7.91017241 C3.79310345,8.00551724 3.87034483,8.08258621 3.96551724,8.08258621 C4.06068966,8.08258621 4.13793103,8.00551724 4.13793103,7.91017241 L4.13793103,7.73775862 C4.13793103,7.64241379 4.06068966,7.56534483 3.96551724,7.56534483 Z" id="Path"></path>
                <path d="M7.75862069,3.94465517 L7.5862069,3.94465517 C7.49103448,3.94465517 7.4137931,4.02172414 7.4137931,4.11706897 C7.4137931,4.21241379 7.49103448,4.28948276 7.5862069,4.28948276 L7.75862069,4.28948276 C7.8537931,4.28948276 7.93103448,4.21241379 7.93103448,4.11706897 C7.93103448,4.02172414 7.8537931,3.94465517 7.75862069,3.94465517 Z" id="Path"></path>
                <path d="M0.344827586,3.94465517 L0.172413793,3.94465517 C0.0772413793,3.94465517 0,4.02172414 0,4.11706897 C0,4.21241379 0.0772413793,4.28948276 0.172413793,4.28948276 L0.344827586,4.28948276 C0.44,4.28948276 0.517241379,4.21241379 0.517241379,4.11706897 C0.517241379,4.02172414 0.44,3.94465517 0.344827586,3.94465517 Z" id="Path"></path>
                <path d="M6.52568966,1.31293103 L6.4037931,1.43482759 C6.33637931,1.50224138 6.33637931,1.6112069 6.4037931,1.67862069 C6.43741379,1.71224138 6.48155172,1.72913793 6.52568966,1.72913793 C6.56982759,1.72913793 6.61396552,1.71224138 6.64758621,1.67862069 L6.76948276,1.55672414 C6.83689655,1.48931034 6.83689655,1.38034483 6.76948276,1.31293103 C6.70206897,1.24551724 6.59310345,1.24551724 6.52568966,1.31293103 Z" id="Path"></path>
                <path d="M1.28344828,6.55534483 L1.16155172,6.67724138 C1.09413793,6.74465517 1.09413793,6.85362069 1.16155172,6.92103448 C1.19517241,6.95465517 1.23931034,6.97155172 1.28344828,6.97155172 C1.32758621,6.97155172 1.37172414,6.95465517 1.40534483,6.92103448 L1.52724138,6.79913793 C1.59465517,6.73172414 1.59465517,6.62275862 1.52724138,6.55534483 C1.45982759,6.48793103 1.35068966,6.48810345 1.28344828,6.55534483 Z" id="Path"></path>
                <path d="M6.64758621,6.55534483 C6.58017241,6.48793103 6.4712069,6.48793103 6.4037931,6.55534483 C6.33637931,6.62275862 6.33637931,6.73172414 6.4037931,6.79913793 L6.52568966,6.92103448 C6.55931034,6.95465517 6.60344828,6.97155172 6.64758621,6.97155172 C6.69172414,6.97155172 6.73586207,6.95465517 6.76948276,6.92103448 C6.83689655,6.85362069 6.83689655,6.74465517 6.76948276,6.67724138 L6.64758621,6.55534483 Z" id="Path"></path>
                <path d="M1.40534483,1.31293103 C1.33793103,1.24551724 1.22896552,1.24551724 1.16155172,1.31293103 C1.09413793,1.38034483 1.09413793,1.48931034 1.16155172,1.55672414 L1.28344828,1.67862069 C1.31706897,1.71224138 1.3612069,1.72913793 1.40534483,1.72913793 C1.44948276,1.72913793 1.49362069,1.71224138 1.52724138,1.67862069 C1.59465517,1.6112069 1.59465517,1.50224138 1.52724138,1.43482759 L1.40534483,1.31293103 Z" id="Path"></path>
            </g>
            <line x1="4.48275862" y1="4.97913793" x2="3.10344828" y2="4.97913793" id="Path" stroke="#FFFFFF" stroke-width="0.6" stroke-linecap="round" stroke-linejoin="round"></line>
            <line x1="5" y1="4.46189655" x2="5" y2="2.56534483" id="Path" stroke="#FFFFFF" stroke-width="0.6" stroke-linecap="round" stroke-linejoin="round"></line>
            <circle id="Oval" fill="#FFFFFF" cx="5" cy="4.97913793" r="1"></circle>
        </g>
    </g>
</svg>