<?xml version="1.0" encoding="UTF-8"?>
<svg width="16px" height="14px" viewBox="0 0 16 14" version="1.1" xmlns="http://www.w3.org/2000/svg" xmlns:xlink="http://www.w3.org/1999/xlink">
    <!-- Generator: Sketch 60.1 (88133) - https://sketch.com -->
    <title>861059</title>
    <desc>Created with Sketch.</desc>
    <g id="Page-1" stroke="none" stroke-width="1" fill="none" fill-rule="evenodd">
        <g id="861059" fill-rule="nonzero">
            <path d="M10.7960102,7.17764885 C12.4122137,7.08421374 13.7981476,8.3186972 13.8915827,9.93490076 C13.9850178,11.5511043 12.7505344,12.9370382 11.1343308,13.0304733 C11.0216387,13.0369873 10.9087023,13.0369873 10.7960102,13.0304733 L2.28710433,13.0304733 C1.02347074,13.029944 -0.000529262087,12.0051298 -2.05072353e-07,10.7414962 C0.000529262087,9.47859542 1.02420356,8.45492112 2.28710433,8.45439186 L2.4499542,8.45439186 C2.18015267,6.50674809 3.54027481,4.70912977 5.48791858,4.43932824 C7.43556234,4.16952672 9.23318066,5.52964885 9.50298219,7.47729262 C9.90518066,7.27926718 10.3476845,7.17671247 10.7960102,7.17764885 L10.7960102,7.17764885 Z" id="Path" fill="#33D2F7"></path>
            <path d="M8.99977608,1.46813232 C9.04838677,1.62442748 8.96105852,1.79053435 8.80476336,1.83914504 C8.64846819,1.88775573 8.48236132,1.80042748 8.43375064,1.64413232 C8.43090076,1.63497201 8.42849873,1.62568957 8.42654453,1.6163257 L8.10084478,0.385180662 C8.0522341,0.228885496 8.13956234,0.062778626 8.29585751,0.0141679389 C8.45215267,-0.0344427481 8.61825954,0.0528854962 8.66687023,0.209180662 C8.6697201,0.218340967 8.67212214,0.22762341 8.67407634,0.236987277 L8.99977608,1.46813232 Z M6.80944529,2.53968448 C6.92502799,2.65616285 6.92429517,2.84425445 6.80781679,2.95983715 C6.69133842,3.07541985 6.50324682,3.07468702 6.38766412,2.95820865 L5.49198982,2.05276336 C5.36614758,1.9480916 5.34900763,1.76118066 5.45367939,1.63537913 C5.55835115,1.5095369 5.74526209,1.49239695 5.87106361,1.5970687 C5.88673791,1.6101374 5.9010687,1.62475318 5.91373028,1.64075318 L6.80944529,2.53968448 Z M14.3607939,7.61734351 C14.2029517,7.57235623 14.11143,7.40795929 14.1564173,7.25011705 C14.2014046,7.09227481 14.3658015,7.00075318 14.5236438,7.04574046 L15.7515318,7.3812112 C15.909374,7.42619847 16.0008957,7.59059542 15.9559084,7.74843766 C15.9109211,7.9062799 15.7465242,7.99780153 15.5886819,7.95281425 L15.5886819,7.95281425 L14.3607939,7.61734351 Z M14.5236438,5.18436641 C14.3633588,5.2176285 14.2064936,5.11462595 14.1732316,4.95434097 C14.1422494,4.80492621 14.2297405,4.65640712 14.3754504,4.61113486 L15.6065954,4.28543511 C15.7668804,4.25217303 15.9237455,4.35517557 15.9570076,4.51546056 C15.9879898,4.66487532 15.9004987,4.8133944 15.7547888,4.85866667 L14.5236438,5.18436641 Z M13.4553486,2.99566412 C13.3388702,3.11169466 13.1504122,3.11132824 13.0343817,2.99484987 C12.9183511,2.8783715 12.9187176,2.68991349 13.0351959,2.57388295 L13.9406412,1.67820865 C14.0571196,1.56262595 14.2452112,1.56335878 14.3607939,1.67983715 C14.4763766,1.79631552 14.4756438,1.98440712 14.3591654,2.09998982 L13.4553486,2.99566412 Z M11.4311247,1.64075318 C11.3861374,1.79859542 11.2217405,1.89011705 11.0638982,1.84512977 C10.906056,1.80014249 10.8145344,1.63574555 10.8595216,1.47790331 L10.8595216,1.47790331 L11.1949924,0.250015267 C11.2399796,0.092173028 11.4043766,0.000651399491 11.5622188,0.0456386768 C11.7200611,0.0906259542 11.8115827,0.255022901 11.7665954,0.41286514 L11.4311247,1.64075318 Z M11.1054249,3.10640204 C12.6978117,3.74123155 13.4740356,5.54670738 12.8392468,7.13909415 C12.7538321,7.35340458 12.6447634,7.55749618 12.5140763,7.74762341 C11.6315929,7.11116539 10.4692112,7.01585751 9.49483969,7.5000916 C9.30202545,6.1893944 8.39829008,5.09369975 7.14817303,4.65510433 C7.84443766,3.1702799 9.57825954,2.48663613 11.1005394,3.09663104 L11.1054249,3.10640204 Z" id="Shape" fill="#FFED00"></path>
        </g>
    </g>
</svg>