<?xml version="1.0" encoding="UTF-8"?>
<svg width="7px" height="12px" viewBox="0 0 7 12" version="1.1" xmlns="http://www.w3.org/2000/svg" xmlns:xlink="http://www.w3.org/1999/xlink">
    <!-- Generator: Sketch 60.1 (88133) - https://sketch.com -->
    <title>Shape</title>
    <desc>Created with Sketch.</desc>
    <g id="Page-1" stroke="none" stroke-width="1" fill="none" fill-rule="evenodd">
        <g id="halloween_screen2" transform="translate(-125.000000, -736.000000)" fill="#FFFFFF" fill-rule="nonzero">
            <g id="Group-3" transform="translate(20.000000, 571.000000)">
                <g id="Group-2">
                    <g id="Group-7" transform="translate(94.071202, 156.599996)">
                        <g id="1077041" transform="translate(11.247644, 9.204545)">
                            <path d="M3.86509931,10.9963632 L2.10449959,10.9963632 C1.81042325,10.9963632 1.57120313,10.7570929 1.57120313,10.462955 L1.57120313,6.49100202 L0.544032869,6.49100202 C0.249956509,6.49100202 0.010736387,6.25164789 0.010736387,5.95759385 L0.010736387,4.25560395 C0.010736387,3.96146601 0.249956509,3.72219578 0.544032869,3.72219578 L1.57120313,3.72219578 L1.57120313,2.86990044 C1.57120313,2.02482014 1.83650932,1.3058349 2.33835154,0.790799848 C2.84245845,0.273415743 3.54694997,0 4.37566484,0 L5.71838424,0.00218127468 C6.01195732,0.00268465897 6.25075803,0.24195489 6.25075803,0.535589465 L6.25075803,2.11584685 C6.25075803,2.40998481 6.0116218,2.64925502 5.71762934,2.64925502 L4.81359199,2.64959063 C4.53788493,2.64959063 4.46767903,2.70487781 4.45266486,2.72182473 C4.42792085,2.74992973 4.39847966,2.82937887 4.39847966,3.04876585 L4.39847966,3.72211189 L5.64968813,3.72211189 C5.74388315,3.72211189 5.83514244,3.74535096 5.9135684,3.78914445 C6.08275037,3.88369479 6.1879334,4.0624763 6.1879334,4.25568786 L6.18726237,5.95767774 C6.18726237,6.25164789 5.94804225,6.49091812 5.65396591,6.49091812 L4.39847966,6.49091812 L4.39847966,10.462955 C4.39847966,10.7570929 4.15917565,10.9963632 3.86509931,10.9963632 L3.86509931,10.9963632 Z M2.21572186,10.3517094 L3.75387704,10.3517094 L3.75387704,6.20240118 C3.75387704,6.0060016 3.91366469,5.84626439 4.10993926,5.84626439 L5.54274364,5.84626439 L5.5433308,4.36684951 L4.10985539,4.36684951 C3.91358079,4.36684951 3.75387704,4.2071123 3.75387704,4.01071273 L3.75387704,3.04876585 C3.75387704,2.79691127 3.77945985,2.51049172 3.96952744,2.29521564 C4.19918548,2.0349715 4.56111913,2.00493687 4.81342423,2.00493687 L5.60623932,2.00460131 L5.60623932,0.64666723 L4.37516156,0.644653736 C3.04334632,0.644653736 2.21572186,1.49736854 2.21572186,2.86990044 L2.21572186,4.01071273 C2.21572186,4.20702839 2.0560181,4.36684951 1.85974353,4.36684951 L0.655255117,4.36684951 L0.655255117,5.84626439 L1.85974353,5.84626439 C2.0560181,5.84626439 2.21572186,6.0060016 2.21572186,6.20240118 L2.21572186,10.3517094 Z" id="Shape"></path>
                        </g>
                    </g>
                </g>
            </g>
        </g>
    </g>
</svg>