<?xml version="1.0" encoding="UTF-8"?>
<svg width="17px" height="16px" viewBox="0 0 17 16" version="1.1" xmlns="http://www.w3.org/2000/svg" xmlns:xlink="http://www.w3.org/1999/xlink">
    <!-- Generator: Sketch 60.1 (88133) - https://sketch.com -->
    <title>Combined Shape</title>
    <desc>Created with Sketch.</desc>
    <g id="Page-1" stroke="none" stroke-width="1" fill="none" fill-rule="evenodd">
        <g id="halloween_screen2" transform="translate(-187.000000, -637.000000)" fill="#4CD964">
            <g id="Group-3" transform="translate(20.000000, 571.000000)">
                <g id="Group-2">
                    <g id="Group-8" transform="translate(167.692142, 66.599998)">
                        <path d="M7.66884796,6.59028387e-13 C11.9042357,6.59028387e-13 15.3376959,3.43417938 15.3376959,7.67045434 C15.3376959,11.9067293 11.9042357,15.3409087 7.66884796,15.3409087 C3.43346019,15.3409087 -5.68434189e-14,11.9067293 -5.68434189e-14,7.67045434 C-5.68434189e-14,3.43417938 3.43346019,6.59028387e-13 7.66884796,6.59028387e-13 Z M11.9572343,4.41743008 C11.5400044,3.98206862 10.8630127,3.98206862 10.4459841,4.41743008 L10.4459841,4.41743008 L6.66856345,8.35900624 C6.56304778,8.46868707 6.39208823,8.46868707 6.28677393,8.35900624 L6.28677393,8.35900624 L4.8917118,6.90352897 C4.4744819,6.46816751 3.79749014,6.46816751 3.38046161,6.90352897 C2.96323171,7.33868033 2.96323171,8.04509213 3.38046161,8.48024348 L3.38046161,8.48024348 L5.72194291,10.9234786 C6.13897144,11.3588401 6.8159632,11.3588401 7.2331931,10.9234786 L7.2331931,10.9234786 L11.9572343,5.99414459 C12.1575933,5.78507864 12.2701567,5.50142131 12.2701567,5.20578734 C12.2701567,4.91015337 12.1575933,4.62649604 11.9572343,4.41743008 Z" id="Combined-Shape"></path>
                    </g>
                </g>
            </g>
        </g>
    </g>
</svg>