<?xml version="1.0" encoding="UTF-8"?>
<svg width="9px" height="12px" viewBox="0 0 9 12" version="1.1" xmlns="http://www.w3.org/2000/svg" xmlns:xlink="http://www.w3.org/1999/xlink">
    <!-- Generator: Sketch 60.1 (88133) - https://sketch.com -->
    <title>Shape</title>
    <desc>Created with Sketch.</desc>
    <g id="Page-1" stroke="none" stroke-width="1" fill="none" fill-rule="evenodd">
        <path d="M4.34595061,0 C1.9495805,0 0,1.9495805 0,4.34592717 C0,7.3198683 3.88920005,11.6857877 4.05478619,11.8701942 C4.21031763,12.0434209 4.48186484,12.0431162 4.63711503,11.8701942 C4.80270117,11.6857877 8.69190122,7.3198683 8.69190122,4.34592717 C8.69190122,1.9495805 6.74229728,0 4.34595061,0 Z M4.34595061,6.53248452 C3.14027726,6.53248452 2.15941669,5.55160052 2.15941669,4.34592717 C2.15941669,3.14025383 3.1403007,2.15939326 4.34595061,2.15939326 C5.55160052,2.15939326 6.53246109,3.14027726 6.53246109,4.34595061 C6.53246109,5.55162395 5.55160052,6.53248452 4.34595061,6.53248452 Z" id="Shape" fill="#FFFFFF"></path>
    </g>
</svg>