<?xml version="1.0" encoding="UTF-8"?>
<svg width="12px" height="10px" viewBox="0 0 12 10" version="1.1" xmlns="http://www.w3.org/2000/svg" xmlns:xlink="http://www.w3.org/1999/xlink">
    <!-- Generator: Sketch 60.1 (88133) - https://sketch.com -->
    <title>126516</title>
    <desc>Created with Sketch.</desc>
    <g id="Page-1" stroke="none" stroke-width="1" fill="none" fill-rule="evenodd">
        <g id="halloween_screen2" transform="translate(-83.000000, -737.000000)" fill="#FFFFFF" fill-rule="nonzero">
            <g id="Group-3" transform="translate(20.000000, 571.000000)">
                <g id="Group-2">
                    <g id="Group-5" transform="translate(55.215705, 156.599996)">
                        <g id="126516" transform="translate(8.180104, 10.227272)">
                            <path d="M10.0843766,0.0178290519 L1.40463507,0.0178290519 C0.629827906,0.0178290519 0,0.647788887 0,1.42275834 L0,7.35626683 C0,8.13123628 0.629827906,8.76119612 1.40463507,8.76119612 L10.0819999,8.76119612 C10.8568071,8.76119612 11.4866417,8.13123628 11.4866417,7.35626683 L11.4866417,1.42513555 C11.4890117,0.650166094 10.8591838,0.0178290519 10.0843766,0.0178290519 Z M10.8473002,7.35626683 C10.8473002,7.77703245 10.5050541,8.11935025 10.0843766,8.11935025 L1.40463507,8.11935025 C0.983957559,8.11935025 0.641711452,7.77703245 0.641711452,7.35626683 L0.641711452,1.42513555 C0.641711452,1.00436993 0.983957559,0.662052128 1.40463507,0.662052128 L10.0819999,0.662052128 C10.5026774,0.662052128 10.8449235,1.00436993 10.8449235,1.42513555 L10.8449235,7.35626683 L10.8473002,7.35626683 Z" id="Shape"></path>
                            <path d="M7.24420928,4.31581917 L10.0534794,1.79597983 C10.1841984,1.67711949 10.196082,1.4750569 10.0772465,1.34193331 C9.95841104,1.21118693 9.75639077,1.19930089 9.62329506,1.31816124 L5.74925926,4.79601497 L4.99346578,4.1208882 C4.99108907,4.118511 4.98871236,4.11613379 4.98871236,4.11375658 C4.9720754,4.09711613 4.95543843,4.08285289 4.93642476,4.06858965 L1.86096321,1.31578403 C1.7278675,1.19692369 1.52584723,1.20880972 1.40701178,1.34193331 C1.28817632,1.4750569 1.30005987,1.67711949 1.43315558,1.79597983 L4.27569963,4.33721403 L1.44503912,6.98779975 C1.31669683,7.10903731 1.3095667,7.3110999 1.43077887,7.44184628 C1.49495001,7.50840807 1.58051154,7.54406617 1.66607306,7.54406617 C1.74450446,7.54406617 1.82293586,7.51553969 1.8847303,7.45848672 L4.75817158,4.76986569 L5.53773216,5.46638732 C5.59952659,5.52106308 5.67558128,5.54721236 5.75163597,5.54721236 C5.82769066,5.54721236 5.90612206,5.51868587 5.96553979,5.46401012 L6.76649075,4.74609362 L9.62329506,7.46086393 C9.6850895,7.5202941 9.76589761,7.54882059 9.84432901,7.54882059 C9.92989054,7.54882059 10.0130754,7.51553969 10.0772465,7.4489779 C10.1984587,7.32060872 10.1937052,7.11616893 10.065363,6.99493137 L7.24420928,4.31581917 Z" id="Path"></path>
                        </g>
                    </g>
                </g>
            </g>
        </g>
    </g>
</svg>