<?xml version="1.0" encoding="UTF-8"?>
<svg width="10px" height="11px" viewBox="0 0 10 11" version="1.1" xmlns="http://www.w3.org/2000/svg" xmlns:xlink="http://www.w3.org/1999/xlink">
    <!-- Generator: Sketch 60.1 (88133) - https://sketch.com -->
    <title>Shape</title>
    <desc>Created with Sketch.</desc>
    <g id="Page-1" stroke="none" stroke-width="1" fill="none" fill-rule="evenodd">
        <g id="halloween_screen2" transform="translate(-46.000000, -736.000000)" fill="#FFFFFF" fill-rule="nonzero">
            <g id="Group-3" transform="translate(20.000000, 571.000000)">
                <g id="Group-2">
                    <g id="Group-4" transform="translate(16.360209, 156.599996)">
                        <g id="159832" transform="translate(10.225131, 9.204545)">
                            <path d="M1.877544,6.12617864 C2.78635022,7.21277329 3.88035434,8.06829948 5.12900825,8.67366065 C5.60441318,8.89900014 6.24019568,9.16635208 6.94852994,9.21218384 C6.99244285,9.21409349 7.03444649,9.21600315 7.0783594,9.21600315 C7.55376433,9.21600315 7.93561568,9.05177268 8.24682453,8.71376344 C8.24873379,8.71185379 8.2525523,8.70803447 8.25446156,8.70421516 C8.36519845,8.57053919 8.4912094,8.45023082 8.62294811,8.32228382 C8.71268318,8.23634927 8.80432751,8.14659541 8.89215332,8.05493189 C9.29882501,7.6309881 9.29882501,7.09246492 8.8883348,6.68188873 L7.74087149,5.53418507 C7.5461273,5.33176146 7.31319798,5.22482068 7.06881312,5.22482068 C6.82442825,5.22482068 6.58958967,5.33176146 6.38911771,5.53227541 L5.70560379,6.2159325 C5.64259832,6.17964903 5.57768359,6.14718486 5.51658737,6.11663035 C5.4402171,6.07843722 5.3695746,6.04215374 5.30656913,6.00205095 C4.68415143,5.60675202 4.11901143,5.09114472 3.57869177,4.42849385 C3.30566805,4.08284599 3.1223794,3.79257817 2.9944592,3.49658139 C3.17392934,3.33426057 3.34194393,3.16430112 3.50423075,2.99816099 C3.56150846,2.93896163 3.62069542,2.87976228 3.67988238,2.82056292 C3.88608211,2.61432 3.996819,2.37561291 3.996819,2.13308651 C3.996819,1.89056012 3.88799136,1.65185303 3.67988238,1.44561011 L3.11092386,0.876532417 C3.04409988,0.809694433 2.9810944,0.744766106 2.91617967,0.677928122 C2.79016873,0.548071468 2.65843001,0.4143955 2.52860055,0.294087129 C2.33194711,0.101211804 2.10092704,2.84217094e-14 1.85654218,2.84217094e-14 C1.61406657,2.84217094e-14 1.38113724,0.101211804 1.17684677,0.295996786 L0.462784745,1.01020839 C0.203125826,1.26992169 0.056113056,1.58501505 0.0255649479,1.94975947 C-0.0107109304,2.40616742 0.0732963668,2.89122022 0.290951637,3.47748482 C0.625071569,4.38457174 1.12911535,5.22673034 1.877544,6.12617864 Z M0.491423596,1.98986226 C0.514334677,1.73587792 0.611706772,1.52390603 0.79499542,1.34057899 L1.50523893,0.630186705 C1.61597582,0.523245931 1.73816826,0.467865887 1.85654218,0.467865887 C1.97300684,0.467865887 2.09138076,0.523245931 2.20020839,0.634006019 C2.32812859,0.752404733 2.44841177,0.876532417 2.57824123,1.00829873 C2.64315596,1.07513671 2.70997994,1.1419747 2.77680393,1.21072234 L3.34576244,1.77980003 C3.46413636,1.89819874 3.52523258,2.01850711 3.52523258,2.13690583 C3.52523258,2.25530454 3.46413636,2.37561291 3.34576244,2.49401163 C3.28657548,2.55321098 3.22738853,2.61432 3.16820157,2.67351936 C2.99064069,2.85302708 2.82453535,3.02298653 2.6412467,3.18530735 C2.63742819,3.18912666 2.63551893,3.19103632 2.63170042,3.19485563 C2.47323211,3.35335713 2.49805245,3.50422001 2.53623758,3.61879941 C2.53814684,3.62452838 2.54005609,3.6283477 2.54196535,3.63407667 C2.68897812,3.98736315 2.89326859,4.32346273 3.21211447,4.72449063 C3.7848915,5.43106361 4.38821663,5.97913507 5.05263798,6.4011692 C5.13473602,6.45463959 5.22256183,6.49665203 5.30465987,6.53866448 C5.38103014,6.57685762 5.45167264,6.61314109 5.51467812,6.65324388 C5.52231514,6.6570632 5.52804291,6.66088251 5.53567994,6.66470182 C5.59868541,6.69716599 5.65978163,6.71244324 5.72087785,6.71244324 C5.87361839,6.71244324 5.97289974,6.61505075 6.0053571,6.58258659 L6.71941913,5.86837499 C6.83015602,5.7576149 6.9504392,5.69841554 7.06881312,5.69841554 C7.21391663,5.69841554 7.33229055,5.78816941 7.40675156,5.86837499 L8.55803338,7.01798831 C8.78714419,7.24714711 8.78523494,7.49540248 8.55230561,7.73792888 C8.47211683,7.82386343 8.38810953,7.90597867 8.29837447,7.99191322 C8.16472649,8.12176987 8.02535075,8.25544584 7.8993398,8.40630872 C7.67977528,8.64310615 7.4182071,8.75386623 7.08026866,8.75386623 C7.04781129,8.75386623 7.01344467,8.75195658 6.98098731,8.75004692 C6.35475109,8.70994413 5.77242778,8.46550807 5.33520798,8.2573555 C4.14765028,7.68254883 3.10519609,6.86712543 2.24030278,5.83209151 C1.52815001,4.97465566 1.04892657,4.17641917 0.731989947,3.32089297 C0.535336501,2.79573738 0.460875488,2.37370326 0.491423596,1.98986226 Z" id="Shape"></path>
                        </g>
                    </g>
                </g>
            </g>
        </g>
    </g>
</svg>