<?xml version="1.0" encoding="UTF-8"?>
<svg width="15px" height="15px" viewBox="0 0 15 15" version="1.1" xmlns="http://www.w3.org/2000/svg" xmlns:xlink="http://www.w3.org/1999/xlink">
    <!-- Generator: Sketch 60.1 (88133) - https://sketch.com -->
    <title>Combined Shape</title>
    <desc>Created with Sketch.</desc>
    <g id="Page-1" stroke="none" stroke-width="1" fill="none" fill-rule="evenodd">
        <g id="halloween_screen2" transform="translate(-248.000000, -738.000000)" fill="#FF3B30">
            <g id="Group-3" transform="translate(20.000000, 571.000000)">
                <g id="Group-9" transform="translate(206.099995, 53.999999)">
                    <g id="Group">
                        <g id="Group-8" transform="translate(22.836069, 113.535580)">
                            <path d="M6.85082079,0 C10.6344246,0 13.7016416,3.07449258 13.7016416,6.86707138 C13.7016416,10.6596502 10.6344246,13.7341428 6.85082079,13.7341428 C3.06721695,13.7341428 -7.51665475e-13,10.6596502 -7.51665475e-13,6.86707138 C-7.51665475e-13,3.07449258 3.06721695,0 6.85082079,0 Z M4.90706938,3.87791761 C4.62021181,3.59065428 4.15561655,3.59065428 3.86886859,3.87791761 C3.58206583,4.16540069 3.58206583,4.63137268 3.86886859,4.91885576 L3.86886859,4.91885576 L5.79707321,6.85176239 L3.86897821,8.78459576 C3.58217545,9.07229859 3.58217545,9.53817902 3.86897821,9.82564378 C4.01238872,9.96939448 4.20015602,10.0411783 4.3880512,10.0411783 C4.57600118,10.0411783 4.76389636,9.9692846 4.90717899,9.82564378 L4.90717899,9.82564378 L6.83560284,7.89260897 L8.76417283,9.8256621 C8.90736412,9.96941279 9.0952593,10.0411783 9.28335543,10.0411783 C9.471141,10.0411783 9.65901791,9.96930292 9.80231881,9.8256621 C10.0891216,9.53806915 10.0891216,9.07220702 9.80231881,8.78461408 L9.80231881,8.78461408 L7.874169,6.8517807 L9.80231881,4.91885576 C10.0891216,4.63137268 10.0891216,4.16540069 9.8022092,3.87791761 C9.51551605,3.59065428 9.05086598,3.59065428 8.76395361,3.87791761 L8.76395361,3.87791761 L6.83558457,5.81084255 Z" id="Combined-Shape"></path>
                        </g>
                    </g>
                </g>
            </g>
        </g>
    </g>
</svg>